<svg width="38" height="48" viewBox="0 0 38 48" fill="none" xmlns="http://www.w3.org/2000/svg">
<path d="M19 23.75C19 22.815 19.3714 21.9183 20.0326 21.2572C20.6937 20.596 21.5904 20.2246 22.5254 20.2246C23.4604 20.2246 24.3571 20.596 25.0182 21.2572C25.6794 21.9183 26.0508 22.815 26.0508 23.75C26.0508 24.685 25.6794 25.5817 25.0182 26.2428C24.3571 26.904 23.4604 27.2754 22.5254 27.2754C21.5904 27.2754 20.6937 26.904 20.0326 26.2428C19.3714 25.5817 19 24.685 19 23.75V23.75Z" stroke="black" stroke-width="1.29883"/>
<path d="M11.9492 30.8008C11.9492 29.8658 12.3206 28.9691 12.9818 28.308C13.6429 27.6468 14.5396 27.2754 15.4746 27.2754H19V30.8008C19 31.7358 18.6286 32.6325 17.9674 33.2936C17.3063 33.9547 16.4096 34.3262 15.4746 34.3262C14.5396 34.3262 13.6429 33.9547 12.9818 33.2936C12.3206 32.6325 11.9492 31.7358 11.9492 30.8008Z" stroke="black" stroke-width="1.29883"/>
<path d="M19 13.1738V20.2246H22.5254C23.4604 20.2246 24.3571 19.8532 25.0182 19.192C25.6794 18.5309 26.0508 17.6342 26.0508 16.6992C26.0508 15.7642 25.6794 14.8675 25.0182 14.2064C24.3571 13.5453 23.4604 13.1738 22.5254 13.1738H19Z" stroke="black" stroke-width="1.29883"/>
<path d="M11.9492 16.6992C11.9492 17.6342 12.3206 18.5309 12.9818 19.192C13.6429 19.8532 14.5396 20.2246 15.4746 20.2246H19V13.1738H15.4746C14.5396 13.1738 13.6429 13.5453 12.9818 14.2064C12.3206 14.8675 11.9492 15.7642 11.9492 16.6992Z" stroke="black" stroke-width="1.29883"/>
<path d="M11.9492 23.75C11.9492 24.685 12.3206 25.5817 12.9818 26.2428C13.6429 26.904 14.5396 27.2754 15.4746 27.2754H19V20.2246H15.4746C14.5396 20.2246 13.6429 20.596 12.9818 21.2572C12.3206 21.9183 11.9492 22.815 11.9492 23.75Z" stroke="black" stroke-width="1.29883"/>
</svg>
