<svg width="22" height="24" viewBox="0 0 22 24" fill="none" xmlns="http://www.w3.org/2000/svg">
<path d="M8.125 18.9999C3.125 20.4999 3.125 16.4999 1.125 15.9999M15.125 21.9999V18.1299C15.1625 17.6531 15.0981 17.1737 14.936 16.7237C14.7739 16.2737 14.5179 15.8634 14.185 15.5199C17.325 15.1699 20.625 13.9799 20.625 8.51994C20.6247 7.12377 20.0877 5.78114 19.125 4.76994C19.5809 3.54844 19.5486 2.19829 19.035 0.999938C19.035 0.999938 17.855 0.649938 15.125 2.47994C12.833 1.85876 10.417 1.85876 8.125 2.47994C5.395 0.649938 4.215 0.999938 4.215 0.999938C3.70138 2.19829 3.66914 3.54844 4.125 4.76994C3.15513 5.78864 2.61752 7.1434 2.625 8.54994C2.625 13.9699 5.925 15.1599 9.065 15.5499C8.736 15.8899 8.48226 16.2953 8.32031 16.7399C8.15835 17.1844 8.09181 17.658 8.125 18.1299V21.9999" stroke="#1E1E1E" stroke-width="2.25" stroke-linecap="round" stroke-linejoin="round"/>
</svg>
