<svg width="32" height="32" viewBox="0 0 32 32" fill="none" xmlns="http://www.w3.org/2000/svg">
<rect width="32" height="32" rx="16" fill="white"/>
<path d="M10.9766 21H10.4609L9.63281 19.8516C9.42969 20.0339 9.21354 20.2057 8.98438 20.3672C8.76042 20.5234 8.52344 20.6615 8.27344 20.7812C8.02344 20.8958 7.76562 20.987 7.5 21.0547C7.23958 21.1224 6.97396 21.1562 6.70312 21.1562C6.11458 21.1562 5.5599 21.0573 5.03906 20.8594C4.52344 20.6615 4.07031 20.375 3.67969 20C3.29427 19.6198 2.98958 19.1562 2.76562 18.6094C2.54167 18.0625 2.42969 17.4401 2.42969 16.7422C2.42969 16.0911 2.54167 15.4948 2.76562 14.9531C2.98958 14.4062 3.29427 13.9375 3.67969 13.5469C4.07031 13.1562 4.52344 12.8542 5.03906 12.6406C5.5599 12.4219 6.11458 12.3125 6.70312 12.3125C6.97396 12.3125 7.24219 12.3464 7.50781 12.4141C7.77344 12.4818 8.03125 12.5755 8.28125 12.6953C8.53125 12.8151 8.76823 12.9557 8.99219 13.1172C9.22135 13.2786 9.4349 13.4531 9.63281 13.6406L10.4609 12.6484H10.9766V21ZM8.82812 16.7422C8.82812 16.4505 8.77083 16.1693 8.65625 15.8984C8.54688 15.6224 8.39583 15.3802 8.20312 15.1719C8.01042 14.9583 7.78385 14.7891 7.52344 14.6641C7.26823 14.5339 6.99479 14.4688 6.70312 14.4688C6.41146 14.4688 6.13542 14.5182 5.875 14.6172C5.61979 14.7161 5.39583 14.862 5.20312 15.0547C5.01562 15.2474 4.86719 15.487 4.75781 15.7734C4.64844 16.0547 4.59375 16.3776 4.59375 16.7422C4.59375 17.1068 4.64844 17.4323 4.75781 17.7188C4.86719 18 5.01562 18.237 5.20312 18.4297C5.39583 18.6224 5.61979 18.7682 5.875 18.8672C6.13542 18.9661 6.41146 19.0156 6.70312 19.0156C6.99479 19.0156 7.26823 18.9531 7.52344 18.8281C7.78385 18.6979 8.01042 18.5286 8.20312 18.3203C8.39583 18.1068 8.54688 17.8646 8.65625 17.5938C8.77083 17.3177 8.82812 17.0339 8.82812 16.7422ZM17.2031 21H12.3281V18.875H17.2031C17.349 18.875 17.474 18.8229 17.5781 18.7188C17.6823 18.6146 17.7344 18.4896 17.7344 18.3438C17.7344 18.1927 17.6823 18.0938 17.5781 18.0469C17.474 18 17.349 17.9766 17.2031 17.9766H14.9844C14.6146 17.9766 14.2682 17.9062 13.9453 17.7656C13.6224 17.625 13.3411 17.4349 13.1016 17.1953C12.862 16.9505 12.6719 16.6667 12.5312 16.3438C12.3958 16.0208 12.3281 15.6745 12.3281 15.3047C12.3281 14.9349 12.3958 14.5885 12.5312 14.2656C12.6719 13.9427 12.862 13.6615 13.1016 13.4219C13.3411 13.1823 13.6224 12.9948 13.9453 12.8594C14.2682 12.7188 14.6146 12.6484 14.9844 12.6484H19.3047V14.7734H14.9844C14.8385 14.7734 14.7135 14.8255 14.6094 14.9297C14.5052 15.0339 14.4531 15.1589 14.4531 15.3047C14.4531 15.4557 14.5052 15.5859 14.6094 15.6953C14.7135 15.7995 14.8385 15.8516 14.9844 15.8516H17.2031C17.5677 15.8516 17.9115 15.9141 18.2344 16.0391C18.5573 16.1589 18.8385 16.3281 19.0781 16.5469C19.3177 16.7656 19.5078 17.0286 19.6484 17.3359C19.7891 17.6432 19.8594 17.9792 19.8594 18.3438C19.8594 18.7135 19.7891 19.0599 19.6484 19.3828C19.5078 19.7005 19.3177 19.9818 19.0781 20.2266C18.8385 20.4661 18.5573 20.6562 18.2344 20.7969C17.9115 20.9323 17.5677 21 17.2031 21ZM23.1484 24.1875H21V12.6328H21.5156L22.3672 13.6406C22.5599 13.4583 22.7708 13.2865 23 13.125C23.2292 12.9635 23.4661 12.8255 23.7109 12.7109C23.9609 12.5911 24.2188 12.4974 24.4844 12.4297C24.75 12.362 25.0182 12.3281 25.2891 12.3281C25.8776 12.3281 26.4297 12.4349 26.9453 12.6484C27.4661 12.8568 27.9193 13.1536 28.3047 13.5391C28.6953 13.9245 29.0026 14.3906 29.2266 14.9375C29.4505 15.4792 29.5625 16.0807 29.5625 16.7422C29.5625 17.4297 29.4505 18.0495 29.2266 18.6016C29.0026 19.1484 28.6953 19.6146 28.3047 20C27.9193 20.3802 27.4661 20.6719 26.9453 20.875C26.4297 21.0781 25.8776 21.1797 25.2891 21.1797C25.1016 21.1797 24.9141 21.1589 24.7266 21.1172C24.5443 21.0755 24.362 21.0208 24.1797 20.9531C24.0026 20.8802 23.8255 20.7995 23.6484 20.7109C23.4766 20.6224 23.3099 20.5312 23.1484 20.4375V24.1875ZM27.4219 16.7422C27.4219 16.388 27.3646 16.0703 27.25 15.7891C27.1406 15.5078 26.9896 15.2708 26.7969 15.0781C26.6042 14.8802 26.3776 14.7292 26.1172 14.625C25.8568 14.5208 25.5807 14.4688 25.2891 14.4688C24.9974 14.4688 24.7214 14.5208 24.4609 14.625C24.2057 14.7292 23.9818 14.8802 23.7891 15.0781C23.5964 15.2708 23.4427 15.5078 23.3281 15.7891C23.2188 16.0703 23.1641 16.388 23.1641 16.7422C23.1641 17.0807 23.2188 17.3906 23.3281 17.6719C23.4427 17.9531 23.5964 18.1927 23.7891 18.3906C23.9818 18.5885 24.2057 18.7422 24.4609 18.8516C24.7214 18.9609 24.9974 19.0156 25.2891 19.0156C25.5807 19.0156 25.8568 18.9609 26.1172 18.8516C26.3776 18.7422 26.6042 18.5885 26.7969 18.3906C26.9896 18.1927 27.1406 17.9531 27.25 17.6719C27.3646 17.3906 27.4219 17.0807 27.4219 16.7422Z" fill="url(#paint0_linear_605_739)"/>
<defs>
<linearGradient id="paint0_linear_605_739" x1="32" y1="16.3333" x2="2" y2="17.6667" gradientUnits="userSpaceOnUse">
<stop stop-color="#3450D0"/>
<stop offset="1" stop-color="#947DEF"/>
</linearGradient>
</defs>
</svg>
